<mxfile host="app.diagrams.net" modified="2023-10-28T12:05:35.280Z" agent="Mozilla/5.0 (Windows NT 10.0; Win64; x64) AppleWebKit/537.36 (KHTML, like Gecko) Chrome/118.0.0.0 Safari/537.36" etag="hlKbHheiFLbMdakPFcmS" version="22.0.8" type="device">
  <diagram name="Page-1" id="b5b7bab2-c9e2-2cf4-8b2a-24fd1a2a6d21">
    <mxGraphModel dx="1061" dy="570" grid="0" gridSize="10" guides="1" tooltips="1" connect="1" arrows="1" fold="1" page="1" pageScale="1" pageWidth="827" pageHeight="1169" background="none" math="0" shadow="0">
      <root>
        <mxCell id="0" />
        <mxCell id="1" parent="0" />
        <mxCell id="kVV8x3SndLDA-Got-Epo-1" value="Клиентский ПК" style="verticalAlign=top;align=left;spacingTop=8;spacingLeft=2;spacingRight=12;shape=cube;size=10;direction=south;fontStyle=4;html=1;whiteSpace=wrap;" vertex="1" parent="1">
          <mxGeometry x="198" y="215" width="180" height="120" as="geometry" />
        </mxCell>
        <mxCell id="kVV8x3SndLDA-Got-Epo-3" value="" style="edgeStyle=orthogonalEdgeStyle;rounded=0;orthogonalLoop=1;jettySize=auto;html=1;endArrow=open;endFill=0;dashed=1;" edge="1" parent="1" source="kVV8x3SndLDA-Got-Epo-4" target="kVV8x3SndLDA-Got-Epo-1">
          <mxGeometry relative="1" as="geometry" />
        </mxCell>
        <mxCell id="kVV8x3SndLDA-Got-Epo-2" value="&amp;lt;&amp;lt;artifact&amp;gt;&amp;gt;&lt;br&gt;&lt;br&gt;&lt;b&gt;Client.exe&lt;/b&gt;" style="html=1;align=center;verticalAlign=middle;dashed=0;whiteSpace=wrap;" vertex="1" parent="1">
          <mxGeometry x="198" y="413" width="180" height="60" as="geometry" />
        </mxCell>
        <mxCell id="kVV8x3SndLDA-Got-Epo-5" value="" style="edgeStyle=orthogonalEdgeStyle;rounded=0;orthogonalLoop=1;jettySize=auto;html=1;endArrow=none;endFill=0;dashed=1;" edge="1" parent="1" source="kVV8x3SndLDA-Got-Epo-2" target="kVV8x3SndLDA-Got-Epo-4">
          <mxGeometry relative="1" as="geometry">
            <mxPoint x="288" y="413" as="sourcePoint" />
            <mxPoint x="288" y="335" as="targetPoint" />
          </mxGeometry>
        </mxCell>
        <mxCell id="kVV8x3SndLDA-Got-Epo-4" value="&amp;lt;&amp;lt;deploy&amp;gt;&amp;gt;" style="text;html=1;align=center;verticalAlign=middle;resizable=0;points=[];autosize=1;strokeColor=none;fillColor=none;" vertex="1" parent="1">
          <mxGeometry x="247.5" y="364" width="81" height="26" as="geometry" />
        </mxCell>
        <mxCell id="kVV8x3SndLDA-Got-Epo-6" value="Сервер" style="verticalAlign=top;align=left;spacingTop=8;spacingLeft=2;spacingRight=12;shape=cube;size=10;direction=south;fontStyle=4;html=1;whiteSpace=wrap;" vertex="1" parent="1">
          <mxGeometry x="552" y="209" width="180" height="120" as="geometry" />
        </mxCell>
        <mxCell id="kVV8x3SndLDA-Got-Epo-7" value="&amp;lt;&amp;lt;artifact&amp;gt;&amp;gt;&lt;br&gt;&lt;br&gt;&lt;b&gt;Server.exe&lt;/b&gt;" style="html=1;align=center;verticalAlign=middle;dashed=0;whiteSpace=wrap;" vertex="1" parent="1">
          <mxGeometry x="476" y="407" width="180" height="60" as="geometry" />
        </mxCell>
        <mxCell id="kVV8x3SndLDA-Got-Epo-8" value="&amp;lt;&amp;lt;artifact&amp;gt;&amp;gt;&lt;br&gt;&lt;br&gt;&lt;b&gt;Database.db&lt;/b&gt;" style="html=1;align=center;verticalAlign=middle;dashed=0;whiteSpace=wrap;" vertex="1" parent="1">
          <mxGeometry x="693" y="404" width="180" height="60" as="geometry" />
        </mxCell>
        <mxCell id="kVV8x3SndLDA-Got-Epo-12" value="" style="edgeStyle=orthogonalEdgeStyle;rounded=0;orthogonalLoop=1;jettySize=auto;html=1;endArrow=open;endFill=0;dashed=1;entryX=1.021;entryY=0.726;entryDx=0;entryDy=0;entryPerimeter=0;" edge="1" parent="1" source="kVV8x3SndLDA-Got-Epo-14" target="kVV8x3SndLDA-Got-Epo-6">
          <mxGeometry relative="1" as="geometry">
            <mxPoint x="478.5" y="316" as="targetPoint" />
            <Array as="points">
              <mxPoint x="566" y="353" />
              <mxPoint x="598" y="353" />
              <mxPoint x="598" y="355" />
              <mxPoint x="601" y="355" />
            </Array>
          </mxGeometry>
        </mxCell>
        <mxCell id="kVV8x3SndLDA-Got-Epo-13" value="" style="edgeStyle=orthogonalEdgeStyle;rounded=0;orthogonalLoop=1;jettySize=auto;html=1;endArrow=none;endFill=0;dashed=1;exitX=0.5;exitY=0;exitDx=0;exitDy=0;" edge="1" parent="1" target="kVV8x3SndLDA-Got-Epo-14" source="kVV8x3SndLDA-Got-Epo-7">
          <mxGeometry relative="1" as="geometry">
            <mxPoint x="478.5" y="394" as="sourcePoint" />
            <mxPoint x="478.5" y="316" as="targetPoint" />
          </mxGeometry>
        </mxCell>
        <mxCell id="kVV8x3SndLDA-Got-Epo-14" value="&amp;lt;&amp;lt;deploy&amp;gt;&amp;gt;" style="text;html=1;align=center;verticalAlign=middle;resizable=0;points=[];autosize=1;strokeColor=none;fillColor=none;" vertex="1" parent="1">
          <mxGeometry x="525.5" y="364" width="81" height="26" as="geometry" />
        </mxCell>
        <mxCell id="kVV8x3SndLDA-Got-Epo-15" value="" style="edgeStyle=orthogonalEdgeStyle;rounded=0;orthogonalLoop=1;jettySize=auto;html=1;endArrow=open;endFill=0;dashed=1;entryX=1.026;entryY=0.353;entryDx=0;entryDy=0;entryPerimeter=0;" edge="1" parent="1" source="kVV8x3SndLDA-Got-Epo-17" target="kVV8x3SndLDA-Got-Epo-6">
          <mxGeometry relative="1" as="geometry">
            <mxPoint x="796.5" y="314" as="targetPoint" />
          </mxGeometry>
        </mxCell>
        <mxCell id="kVV8x3SndLDA-Got-Epo-16" value="" style="edgeStyle=orthogonalEdgeStyle;rounded=0;orthogonalLoop=1;jettySize=auto;html=1;endArrow=none;endFill=0;dashed=1;exitX=0.5;exitY=0;exitDx=0;exitDy=0;" edge="1" parent="1" target="kVV8x3SndLDA-Got-Epo-17" source="kVV8x3SndLDA-Got-Epo-8">
          <mxGeometry relative="1" as="geometry">
            <mxPoint x="796.5" y="392" as="sourcePoint" />
            <mxPoint x="796.5" y="314" as="targetPoint" />
          </mxGeometry>
        </mxCell>
        <mxCell id="kVV8x3SndLDA-Got-Epo-17" value="&amp;lt;&amp;lt;deploy&amp;gt;&amp;gt;" style="text;html=1;align=center;verticalAlign=middle;resizable=0;points=[];autosize=1;strokeColor=none;fillColor=none;" vertex="1" parent="1">
          <mxGeometry x="742.5" y="349" width="81" height="26" as="geometry" />
        </mxCell>
        <mxCell id="kVV8x3SndLDA-Got-Epo-18" value="" style="endArrow=none;html=1;rounded=0;entryX=0;entryY=0;entryDx=65;entryDy=180;entryPerimeter=0;endFill=0;" edge="1" parent="1" source="kVV8x3SndLDA-Got-Epo-1" target="kVV8x3SndLDA-Got-Epo-6">
          <mxGeometry width="50" height="50" relative="1" as="geometry">
            <mxPoint x="433" y="314" as="sourcePoint" />
            <mxPoint x="483" y="264" as="targetPoint" />
          </mxGeometry>
        </mxCell>
      </root>
    </mxGraphModel>
  </diagram>
</mxfile>
